# Blender v2.78 (sub 0) OBJ File: 'PanicParticle.blend'
# www.blender.org
mtllib PanicParticle.mtl
o Exclamation_Cube.002
v 0.200040 0.299960 -0.200040
v 0.200040 0.299960 0.200040
v -0.200040 0.299960 0.200040
v -0.200040 0.299960 -0.200041
v 0.200041 0.700040 -0.200040
v 0.200040 0.700040 0.200041
v -0.200041 0.700040 0.200040
v -0.200040 0.700040 -0.200040
vn 0.0000 -1.0000 -0.0000
vn 0.0000 1.0000 0.0000
vn 1.0000 0.0000 0.0000
vn -0.0000 -0.0000 1.0000
vn -1.0000 -0.0000 -0.0000
vn 0.0000 0.0000 -1.0000
usemtl Material
s off
f 1//1 2//1 3//1 4//1
f 5//2 8//2 7//2 6//2
f 1//3 5//3 6//3 2//3
f 2//4 6//4 7//4 3//4
f 3//5 7//5 8//5 4//5
f 5//6 1//6 4//6 8//6
o Top_Cube.001
v 0.200040 1.200142 -0.200040
v 0.200040 1.200142 0.200040
v -0.200040 1.200142 0.200040
v -0.200040 1.200142 -0.200041
v 0.200041 2.200344 -0.200040
v 0.200040 2.200344 0.200041
v -0.200041 2.200344 0.200040
v -0.200040 2.200344 -0.200040
vn 0.0000 -1.0000 -0.0000
vn 0.0000 1.0000 -0.0000
vn 1.0000 0.0000 0.0000
vn -0.0000 -0.0000 1.0000
vn -1.0000 -0.0000 -0.0000
vn 0.0000 0.0000 -1.0000
usemtl Material
s off
f 9//7 10//7 11//7 12//7
f 13//8 16//8 15//8 14//8
f 9//9 13//9 14//9 10//9
f 10//10 14//10 15//10 11//10
f 11//11 15//11 16//11 12//11
f 13//12 9//12 12//12 16//12
